<svg width="180" height="180" viewBox="0 0 180 180" fill="none" xmlns="http://www.w3.org/2000/svg">
<path d="M44 74V12.944H20.384V6.8H74.72V12.944H51.104V74H44ZM121.228 74.576C116.172 74.576 111.468 73.744 107.116 72.08C102.828 70.352 99.0835 67.952 95.8835 64.88C92.7475 61.744 90.2835 58.128 88.4915 54.032C86.7635 49.872 85.8995 45.328 85.8995 40.4C85.8995 35.472 86.7635 30.96 88.4915 26.864C90.2835 22.704 92.7475 19.088 95.8835 16.016C99.0835 12.88 102.828 10.48 107.116 8.816C111.404 7.088 116.108 6.224 121.228 6.224C126.284 6.224 130.956 7.088 135.244 8.816C139.532 10.48 143.244 12.848 146.38 15.92C149.58 18.992 152.044 22.608 153.772 26.768C155.564 30.928 156.46 35.472 156.46 40.4C156.46 45.328 155.564 49.872 153.772 54.032C152.044 58.192 149.58 61.808 146.38 64.88C143.244 67.952 139.532 70.352 135.244 72.08C130.956 73.744 126.284 74.576 121.228 74.576ZM121.228 68.24C125.26 68.24 128.972 67.568 132.364 66.224C135.82 64.816 138.796 62.864 141.292 60.368C143.852 57.808 145.836 54.864 147.244 51.536C148.652 48.144 149.356 44.432 149.356 40.4C149.356 36.368 148.652 32.688 147.244 29.36C145.836 25.968 143.852 23.024 141.292 20.528C138.796 17.968 135.82 16.016 132.364 14.672C128.972 13.264 125.26 12.56 121.228 12.56C117.196 12.56 113.452 13.264 109.996 14.672C106.54 16.016 103.532 17.968 100.972 20.528C98.4755 23.024 96.4915 25.968 95.0195 29.36C93.6115 32.688 92.9075 36.368 92.9075 40.4C92.9075 44.368 93.6115 48.048 95.0195 51.44C96.4915 54.832 98.4755 57.808 100.972 60.368C103.532 62.864 106.54 64.816 109.996 66.224C113.452 67.568 117.196 68.24 121.228 68.24ZM58.016 154.576C49.44 154.576 42.688 152.112 37.76 147.184C32.832 142.256 30.368 134.96 30.368 125.296V86.8H37.472V125.008C37.472 132.944 39.264 138.8 42.848 142.576C46.432 146.352 51.488 148.24 58.016 148.24C64.608 148.24 69.696 146.352 73.28 142.576C76.864 138.8 78.656 132.944 78.656 125.008V86.8H85.568V125.296C85.568 134.96 83.104 142.256 78.176 147.184C73.312 152.112 66.592 154.576 58.016 154.576ZM106.975 154V86.8H132.127C137.823 86.8 142.719 87.728 146.815 89.584C150.911 91.376 154.047 94 156.223 97.456C158.463 100.848 159.583 104.976 159.583 109.84C159.583 114.576 158.463 118.672 156.223 122.128C154.047 125.52 150.911 128.144 146.815 130C142.719 131.792 137.823 132.688 132.127 132.688H110.911L114.079 129.424V154H106.975ZM152.863 154L135.583 129.616H143.263L160.639 154H152.863ZM114.079 130L110.911 126.64H131.935C138.655 126.64 143.743 125.168 147.199 122.224C150.719 119.28 152.479 115.152 152.479 109.84C152.479 104.464 150.719 100.304 147.199 97.36C143.743 94.416 138.655 92.944 131.935 92.944H110.911L114.079 89.584V130Z" fill="black"/>
</svg>
